<svg preserveAspectRatio="none" overflow="visible" style="display: block;" width="11.4193" height="6.83732" viewBox="0 0 11.4193 6.83732" fill="none" xmlns="http://www.w3.org/2000/svg">
<path id="Vector" fill-rule="evenodd" clip-rule="evenodd" d="M0 6.83732C0.565015 6.45429 1.10781 6.18342 1.53739 5.77712C2.21562 5.16766 2.87057 4.49049 3.48108 3.81332C4.0916 3.15943 4.67989 2.50448 5.44806 2.03151C6.14956 1.60193 6.89551 1.44428 7.70917 1.73737C8.4329 1.98602 8.86248 1.82836 9.29206 1.17341C9.44972 0.92582 9.63065 0.677171 9.81158 0.428523C9.8793 0.338586 9.92479 0.360805 9.92479 0.49624C9.90258 0.654952 9.85708 0.812605 9.81158 0.97026C9.74386 1.15119 9.81158 1.26335 9.99251 1.28663C10.2412 1.33107 10.4676 1.35434 10.7162 1.35434C11.0548 1.35434 10.7162 0.92582 10.6485 0.722669C10.7617 0.587235 11.0548 0.270869 11.1913 0C11.5077 0.338586 11.4167 0.722669 11.3722 1.10569C11.349 1.39878 11.2135 1.66965 11.1003 1.94052C10.784 2.63991 9.85708 2.50448 9.31428 2.25689C9.15663 2.41454 9.04341 2.48226 8.77149 2.68541C8.36518 2.9785 7.89011 3.11393 7.39281 2.93406C6.44371 2.57219 5.58455 2.84306 4.81532 3.3848C4.15931 3.8366 3.5943 4.42278 3.00706 4.96451C2.6452 5.3031 2.30556 5.68612 1.94369 6.00249C1.40196 6.43101 0.745947 6.65638 0 6.83732Z" fill="#231F20"/>
</svg>
