<svg preserveAspectRatio="none" overflow="visible" style="display: block;" width="24.0999" height="43.8225" viewBox="0 0 24.0999 43.8225" fill="none" xmlns="http://www.w3.org/2000/svg">
<path id="Vector" d="M20.8675 5.32532C20.8675 4.31062 20.7088 3.49801 20.3924 2.86634C20.3924 2.48226 20.6865 1.60299 21.2515 0.226429C21.3425 0.0677173 21.4103 0 21.4547 0C21.5235 0 21.5912 0.090995 21.6811 0.248649C21.8621 0.609455 22.2461 1.60299 22.8344 3.20493C23.4672 4.87458 23.8512 5.89033 23.9645 6.27336C24.0555 6.56645 24.0999 6.79288 24.0999 6.90503C24.0999 7.37905 23.6481 7.10819 22.7434 6.09349C22.6313 5.93477 22.5858 6.00249 22.5858 6.25114C22.5858 6.31886 22.7889 9.07198 23.173 14.4872C23.5804 19.9258 23.7613 23.1519 23.7613 24.2131C23.7613 25.9283 23.4672 27.5746 22.8567 29.1544C22.043 31.389 20.7997 32.8333 19.1036 33.5549C17.544 34.2321 16.3685 34.7505 15.5771 35.1346C14.0174 35.8562 12.9319 36.4435 12.3213 36.8942C11.259 37.729 9.67615 39.332 7.61924 41.7011C6.39821 43.1221 5.17719 43.8225 3.95616 43.8225C2.91607 43.8225 1.98919 43.3485 1.22102 42.4005C0.406303 41.4302 0 40.2568 0 38.8347C0 36.9175 0.791444 34.3897 2.37327 31.298C2.55421 30.9827 2.66742 30.824 2.75842 30.824C2.80286 30.8473 2.82613 30.8917 2.82613 30.9594C2.82613 31.2758 2.48649 32.3593 1.80826 34.2088C1.13003 36.0594 0.791444 37.5259 0.791444 38.5871C0.791444 39.422 0.994596 40.0759 1.37868 40.5499C1.78604 41.0916 2.35105 41.3625 3.07478 41.3625C4.36352 41.3625 5.67449 40.7086 6.98545 39.3997C7.82239 38.4062 8.65933 37.4359 9.49521 36.4435C10.5808 35.2246 12.005 34.1421 13.7688 33.1708C14.8078 32.6301 16.5717 31.8175 19.1036 30.7341L19.1714 30.7118C21.1838 29.8315 22.1784 28.5227 22.1784 26.7631C22.1784 25.8828 21.9531 22.3625 21.5235 16.1802C21.0939 10.019 20.8675 6.38657 20.8675 5.32532Z" fill="#231F20"/>
</svg>
