<svg preserveAspectRatio="none" overflow="visible" style="display: block;" width="38.1591" height="9.19816" viewBox="0 0 38.1591 9.19816" fill="none" xmlns="http://www.w3.org/2000/svg">
<g id="Group">
<path id="Vector" d="M0.501584 3.73445H1.03592V6.71402C1.03592 7.09208 0.944214 7.37843 0.760798 7.57494C0.577383 7.77053 0.323785 7.86879 0 7.86879V9.19668C0.417364 9.19293 0.786065 9.1293 1.10611 9.00484C1.42615 8.88038 1.69753 8.70726 1.91838 8.48454C2.14016 8.26088 2.3058 7.99699 2.41809 7.69099C2.52945 7.38498 2.5856 7.0509 2.5856 6.68688V2.66016H0.502521V3.73445H0.501584Z" fill="#243245"/>
<path id="Vector_2" d="M4.76485 0H3.3125V7.09145H5.3151V5.76449H4.76485V0Z" fill="#243245"/>
<path id="Vector_3" d="M11.306 2.08534C11.0384 1.83923 10.7165 1.65207 10.3431 1.52387C9.96879 1.3966 9.55704 1.33203 9.10692 1.33203C8.65306 1.33203 8.23944 1.3966 7.86513 1.52668C7.49081 1.65582 7.16889 1.84391 6.89938 2.09096C6.62988 2.33707 6.41932 2.63933 6.27053 2.99774C6.1208 3.35615 6.04688 3.75948 6.04688 4.2096C6.04688 4.67001 6.12174 5.08082 6.27053 5.44016C6.42026 5.80045 6.62988 6.10177 6.89938 6.34415C7.16889 6.58745 7.49081 6.77274 7.86513 6.90281C8.23944 7.03289 8.65306 7.09746 9.10692 7.09746C9.66466 7.09746 10.1625 6.99827 10.6023 6.80081C10.5845 7.11711 10.4947 7.36229 10.3328 7.53447C10.1494 7.73193 9.89393 7.83112 9.5664 7.83112V9.18615C9.98376 9.18241 10.3534 9.11878 10.6753 8.99432C10.9972 8.86986 11.2686 8.69673 11.4876 8.47401C11.7075 8.25036 11.8731 7.98553 11.9873 7.67765C12.1005 7.36978 12.1576 7.03663 12.1576 6.67635V4.2096C12.1576 3.75293 12.0827 3.34586 11.934 2.99026C11.7833 2.63278 11.5746 2.33146 11.306 2.08534ZM10.491 4.84032C10.4208 5.03123 10.3216 5.19499 10.1943 5.33162C10.067 5.46824 9.9089 5.57492 9.72174 5.64979C9.53458 5.72559 9.32777 5.76302 9.10131 5.76302C8.8814 5.76302 8.6802 5.72559 8.49679 5.64979C8.31337 5.57399 8.15522 5.46824 8.0214 5.33162C7.88852 5.19499 7.78464 5.03123 7.71072 4.84032C7.63679 4.64942 7.60029 4.43887 7.60029 4.20866C7.60029 3.9822 7.63679 3.77446 7.71072 3.58543C7.78464 3.3964 7.88665 3.23263 8.01859 3.09413C8.14961 2.95564 8.30776 2.84895 8.49304 2.77315C8.67833 2.69735 8.88233 2.65992 9.10599 2.65992C9.32871 2.65992 9.53458 2.69642 9.72174 2.77035C9.9089 2.84427 10.0661 2.94815 10.1943 3.08103C10.3216 3.21391 10.4208 3.37581 10.491 3.56671C10.5611 3.75761 10.5967 3.97191 10.5967 4.20866C10.5967 4.4398 10.5611 4.65036 10.491 4.84032Z" fill="#243245"/>
<path id="Vector_4" d="M14.6234 1.99596C14.8283 1.99596 15.0043 1.93981 15.1521 1.82844C15.3103 1.70304 15.3898 1.53552 15.3898 1.32682C15.3898 1.11812 15.3122 0.956218 15.1577 0.841107C15.0033 0.725996 14.8246 0.667969 14.6234 0.667969C14.4212 0.667969 14.249 0.724124 14.1049 0.835492C13.9467 0.95809 13.8672 1.12187 13.8672 1.32682C13.8672 1.53177 13.9467 1.69929 14.1049 1.82844C14.2453 1.93981 14.4175 1.99596 14.6234 1.99596Z" fill="#243245"/>
<path id="Vector_5" d="M17.5459 4.60997C17.5459 4.98803 17.4542 5.27625 17.2708 5.4737C17.0873 5.67209 16.8319 5.77035 16.5043 5.77035C16.1805 5.77035 15.927 5.67116 15.7435 5.4737C15.5601 5.27625 15.4684 4.98803 15.4684 4.60997V2.66164H13.3844V3.73593H13.9187V6.71551C13.9187 7.09357 13.827 7.37992 13.6436 7.57363C13.4602 7.77108 13.2066 7.87027 12.8828 7.87027V9.19816C13.3002 9.19442 13.667 9.13172 13.9842 9.00913C14.308 8.8828 14.5794 8.70875 14.7993 8.48603C15.022 8.26237 15.1895 7.99848 15.3009 7.69247C15.387 7.45478 15.4394 7.20118 15.4572 6.93167C15.7594 7.03929 16.1029 7.09544 16.4884 7.09918H16.5043C16.9217 7.09544 17.2913 7.0318 17.6133 6.90734C17.9352 6.78288 18.2056 6.60976 18.4255 6.3861C18.6445 6.16338 18.8111 5.89762 18.9252 5.58974C19.0385 5.28187 19.0955 4.94872 19.0955 4.58844V0.00585938H17.5459V4.60997Z" fill="#243245"/>
<path id="Vector_6" d="M21.2756 0H19.8242V7.09145H21.8268V5.76449H21.2756V0Z" fill="#243245"/>
<path id="Vector_7" d="M29.4414 4.54368C29.4414 4.96853 29.346 5.27734 29.1551 5.47198C28.9642 5.66663 28.7124 5.76301 28.3989 5.76301H27.3359C27.0121 5.76301 26.7538 5.66569 26.561 5.47198C26.3683 5.27734 26.2728 4.96478 26.2728 4.53338V2.66086H24.7344V4.53338C24.7344 5.37185 24.9646 6.01007 25.425 6.44989C25.8751 6.87755 26.5115 7.09184 27.3359 7.09184H28.3989C28.8023 7.09184 29.1626 7.0357 29.4817 6.92434C29.7998 6.81298 30.0731 6.64828 30.2995 6.43024C30.526 6.2122 30.6973 5.94643 30.8124 5.63107C30.9275 5.31664 30.9855 4.95356 30.9855 4.54368V2.65992H31.6228V1.33203H29.4424V4.54368H29.4414Z" fill="#243245"/>
<path id="Vector_8" d="M28.3951 8.04118C28.2407 7.92419 28.0638 7.86523 27.8663 7.86523C27.6614 7.86523 27.4864 7.92139 27.3432 8.03276C27.185 8.15536 27.1055 8.321 27.1055 8.5297C27.1055 8.73091 27.185 8.89656 27.3432 9.02665C27.4836 9.13801 27.6576 9.19416 27.8663 9.19416C28.0675 9.19416 28.2425 9.13801 28.3904 9.02665C28.5486 8.9003 28.6281 8.73559 28.6281 8.5297C28.6272 8.321 28.5495 8.15816 28.3951 8.04118Z" fill="#243245"/>
<path id="Vector_9" d="M35.9843 1.99747L35.9787 4.54002C35.9787 4.96487 35.8833 5.27369 35.6923 5.46834C35.5014 5.66298 35.2497 5.75937 34.9362 5.75937V5.76498C34.6124 5.76498 34.3588 5.66766 34.1754 5.47395C33.992 5.2765 33.9003 4.98827 33.9003 4.61021V0.0117188H32.3516V4.58869C32.3516 4.94897 32.4077 5.28304 32.5191 5.59279C32.6304 5.8988 32.7979 6.16269 33.0207 6.38635C33.2396 6.61 33.5119 6.78406 33.8357 6.91039C34.1558 7.03298 34.5226 7.09381 34.9362 7.09381C34.9868 7.09381 35.0345 7.0882 35.0813 7.0779C35.8196 7.0517 36.4082 6.84021 36.8368 6.42753C37.2935 5.98677 37.5218 5.35791 37.5218 4.54096V3.3263H38.1591V1.99841H35.9843V1.99747Z" fill="#243245"/>
<path id="Vector_10" d="M35.4771 8.04228C35.3227 7.92717 35.144 7.86914 34.9427 7.86914C34.7415 7.86914 34.5665 7.9253 34.4196 8.03666C34.2652 8.15926 34.1875 8.32304 34.1875 8.52799C34.1875 8.73295 34.2642 8.89859 34.4196 9.02494C34.5637 9.14005 34.7378 9.19807 34.9427 9.19807C35.144 9.19807 35.319 9.14005 35.4668 9.02494C35.6287 8.89859 35.7102 8.73388 35.7102 8.52799C35.7092 8.31929 35.6315 8.15739 35.4771 8.04228Z" fill="#243245"/>
</g>
</svg>
